# xmcd
#
# Track frame offsets:
#	150
#	7325
#	26037
#	48170
#	67762
#	79075
#	91245
#	103657
#	125455
#	138470
#	147217
#	162600
#	177425
#	199977
#	213342
#	227217
#	247677
#	258395
#	269517
#	287890
#	307582
#	323722
#	339405
#
# Disc length: 4599 seconds
#
# Revision: 1
# Processed by: cddbd v1.5.1PL0 Copyright (c) Steve Scherf et al.
# Submitted via: CDex 1.50Beta5
#
DISCID=4b11f517
DTITLE=菊池俊輔 - ボイスラッガー オリジナルサウンドトラック
DYEAR=1999
DGENRE=Soundtrack
TTITLE0=水木一郎/ほえろ!ボイスラッガー(Tvサイズ)
TTITLE1=菊池俊輔/ゴールドの叫び
TTITLE2=菊池俊輔/あたしがヒーロー
TTITLE3=菊池俊輔/帝王ゲンバー
TTITLE4=菊池俊輔/ボイスラッガー・アクション
TTITLE5=菊池俊輔/君がボイスラッガーだ!
TTITLE6=菊池俊輔/ゴールド、その愛
TTITLE7=菊池俊輔/戦士たちの誓い
TTITLE8=菊池俊輔/アメノチエガオエガオノチハレ
TTITLE9=菊池俊輔/ボイスラッガー・ブリッジ・コレクション
TTITLE10=菊池俊輔/いたずらミューとおとぼけパイ
TTITLE11=菊池俊輔/ボイスプロの昼下がり
TTITLE12=菊池俊輔/狙われた街
TTITLE13=菊池俊輔/恐怖のゲンバー
TTITLE14=菊池俊輔/チェンジ!ボイスラッガー
TTITLE15=菊池俊輔/悲しみのボイスラッガー
TTITLE16=菊池俊輔/哀しきソルジャー
TTITLE17=菊池俊輔/復習のカオス
TTITLE18=菊池俊輔/決戦迫る!
TTITLE19=菊池俊輔/激闘!ボイスラッガー
TTITLE20=菊池俊輔/ほえろ!ボイスラッガー
TTITLE21=菊池俊輔/輝かしい未来へ
TTITLE22=影山ヒロノブ/アメノチエガオエガオノチハレ(Tvサイズ)
EXTD=
EXTT0=
EXTT1=
EXTT2=
EXTT3=
EXTT4=
EXTT5=
EXTT6=
EXTT7=
EXTT8=
EXTT9=
EXTT10=
EXTT11=
EXTT12=
EXTT13=
EXTT14=
EXTT15=
EXTT16=
EXTT17=
EXTT18=
EXTT19=
EXTT20=
EXTT21=
EXTT22=
PLAYORDER=
